<!DOCTYPE svg PUBLIC "-//W3C//DTD SVG 20010904//EN" "http://www.w3.org/TR/2001/REC-SVG-20010904/DTD/svg10.dtd">
<svg version="1.0" xmlns="http://www.w3.org/2000/svg" width="50px" height="70px" viewBox="0 0 500 700" preserveAspectRatio="xMidYMid meet">
<g id="layer101" fill="#4eaaea" stroke="none">
 <path d="M26 674 l-26 -27 0 -234 0 -234 25 -25 c22 -21 25 -34 25 -89 l0 -65 200 0 200 0 0 65 c0 55 3 68 25 89 l25 25 0 234 0 234 -26 27 -27 26 -197 0 -197 0 -27 -26z m398 -15 c42 -20 47 -51 44 -263 -4 -254 13 -236 -218 -236 -231 0 -214 -18 -218 236 -3 209 2 243 41 262 30 15 319 15 351 1z m-294 -584 c0 -38 -3 -45 -20 -45 -17 0 -20 7 -20 45 0 38 3 45 20 45 17 0 20 -7 20 -45z m70 0 c0 -33 -4 -45 -15 -45 -11 0 -15 12 -15 45 0 33 4 45 15 45 11 0 15 -12 15 -45z m70 0 c0 -38 -3 -45 -20 -45 -17 0 -20 7 -20 45 0 38 3 45 20 45 17 0 20 -7 20 -45z m60 0 c0 -33 -4 -45 -15 -45 -11 0 -15 12 -15 45 0 33 4 45 15 45 11 0 15 -12 15 -45z m80 0 c0 -38 -3 -45 -20 -45 -17 0 -20 7 -20 45 0 38 3 45 20 45 17 0 20 -7 20 -45z"/>
 <path d="M60 420 l0 -140 190 0 190 0 0 140 0 140 -190 0 -190 0 0 -140z m350 0 l0 -100 -160 0 -160 0 0 100 0 100 160 0 160 0 0 -100z"/>
 </g>
<g id="layer102" fill="#60cdf9" stroke="none">
 <path d="M29 671 c-29 -29 -29 -29 -29 -156 0 -96 3 -130 14 -141 13 -12 15 4 18 121 2 113 6 137 21 152 16 16 38 18 197 18 159 0 181 -2 197 -18 15 -15 19 -39 21 -152 3 -117 5 -133 18 -121 11 11 14 45 14 141 0 127 0 127 -29 156 l-29 29 -192 0 -192 0 -29 -29z"/>
 <path d="M60 459 c0 -89 2 -99 15 -85 10 10 15 35 15 80 l0 66 160 0 160 0 0 -66 c0 -45 5 -70 15 -80 13 -14 15 -4 15 85 l0 101 -190 0 -190 0 0 -101z"/>
 </g>

</svg>