<!DOCTYPE svg PUBLIC "-//W3C//DTD SVG 20010904//EN" "http://www.w3.org/TR/2001/REC-SVG-20010904/DTD/svg10.dtd">
<svg version="1.0" xmlns="http://www.w3.org/2000/svg" width="86px" height="70px" viewBox="0 0 860 700" preserveAspectRatio="xMidYMid meet">
<g id="layer101" fill="#449cd4" stroke="none">
 <path d="M12 688 c-23 -23 -11 -68 63 -232 l75 -166 0 -100 c0 -82 -3 -100 -15 -100 -11 0 -15 -12 -15 -45 l0 -45 120 0 120 0 0 45 c0 33 -4 45 -15 45 -12 0 -15 18 -15 104 l0 104 75 166 c75 166 85 202 63 224 -17 17 -439 17 -456 0z m428 -33 c0 -3 -34 -80 -75 -171 l-75 -166 0 -114 0 -114 -50 0 -50 0 0 110 0 110 -75 166 c-41 91 -75 170 -75 175 0 5 84 9 200 9 110 0 200 -2 200 -5z m-158 -612 c-23 -2 -61 -2 -85 0 -23 2 -4 4 43 4 47 0 66 -2 42 -4z"/>
 <path d="M100 611 c0 -10 18 -57 40 -105 l40 -86 58 0 59 0 42 93 c23 50 41 98 41 105 0 9 -35 12 -140 12 -130 0 -140 -1 -140 -19z m220 -25 c0 -3 -12 -32 -27 -66 -24 -57 -28 -61 -56 -58 -25 3 -33 11 -57 66 l-29 62 85 0 c46 0 84 -2 84 -4z"/>
 <path d="M641 684 c-45 -32 -51 -66 -51 -313 0 -194 -2 -230 -15 -235 -10 -4 -15 -20 -15 -51 l0 -45 150 0 150 0 0 50 c0 37 -4 50 -15 50 -12 0 -14 40 -17 251 l-3 251 -33 29 c-26 23 -41 29 -80 29 -28 0 -57 -7 -71 -16z m120 -43 c24 -19 24 -21 27 -260 l3 -241 -75 0 -76 0 0 240 c0 227 1 241 20 260 25 25 71 26 101 1z m59 -551 c0 -6 -43 -10 -110 -10 -67 0 -110 4 -110 10 0 6 43 10 110 10 67 0 110 -4 110 -10z"/>
 <path d="M665 606 c-13 -19 -15 -52 -13 -177 l3 -154 55 0 55 0 3 159 c2 137 0 161 -14 177 -24 27 -70 24 -89 -5z m63 -159 c2 -132 2 -137 -18 -137 -19 0 -20 6 -20 124 0 129 5 159 24 153 7 -2 12 -50 14 -140z"/>
 </g>
<g id="layer102" fill="#4daedc" stroke="none">
 <path d="M12 688 c-7 -7 -12 -24 -12 -39 0 -29 80 -215 111 -260 10 -14 16 -29 13 -31 -2 -3 7 -3 22 0 16 3 21 7 14 12 -6 4 -11 9 -10 11 2 6 -10 38 -62 152 -26 60 -48 113 -48 118 0 5 86 9 200 9 110 0 200 -2 200 -5 0 -6 -81 -189 -111 -250 -18 -37 -18 -40 -1 -47 26 -10 34 -9 26 3 -3 6 -2 14 3 18 10 6 60 107 104 209 22 50 24 83 7 100 -17 17 -439 17 -456 0z"/>
 <path d="M641 684 c-41 -29 -51 -72 -50 -216 0 -73 3 -127 6 -120 2 6 11 12 18 12 21 0 25 25 25 150 0 111 1 120 22 134 30 21 71 20 99 -3 22 -18 24 -28 29 -144 3 -69 8 -129 13 -133 17 -17 22 15 22 143 l0 135 -33 29 c-26 23 -41 29 -80 29 -28 0 -57 -7 -71 -16z"/>
 <path d="M100 611 c0 -10 18 -57 40 -105 l40 -86 58 0 59 0 42 93 c23 50 41 98 41 105 0 9 -35 12 -140 12 -130 0 -140 -1 -140 -19z m220 -25 c0 -3 -12 -32 -27 -66 -24 -57 -28 -61 -56 -58 -25 3 -33 11 -57 66 l-29 62 85 0 c46 0 84 -2 84 -4z"/>
 <path d="M666 608 c-12 -17 -16 -49 -16 -136 0 -103 2 -113 18 -110 14 3 17 17 19 93 3 107 9 138 26 132 8 -2 14 -40 17 -113 4 -88 8 -109 20 -109 24 0 27 220 4 246 -24 26 -69 24 -88 -3z"/>
 <path d="M853 90 c0 -30 2 -43 4 -28 2 16 2 40 0 55 -2 16 -4 3 -4 -27z"/>
 <path d="M178 3 c34 -2 88 -2 120 0 31 2 3 3 -63 3 -66 0 -92 -1 -57 -3z"/>
 </g>
<g id="layer103" fill="#54bde2" stroke="none">
 <path d="M10 685 c-25 -30 11 -135 45 -135 19 0 19 20 0 56 -28 55 -31 54 185 54 128 0 200 -4 200 -10 0 -6 -4 -18 -9 -28 -40 -78 -60 -124 -47 -108 9 11 16 23 16 27 0 4 11 10 25 13 41 10 71 106 43 134 -9 9 -74 12 -229 12 -181 0 -219 -2 -229 -15z"/>
 <path d="M629 669 c-28 -30 -47 -88 -34 -108 14 -24 33 -10 40 29 8 46 35 70 81 70 36 0 59 -21 76 -71 6 -19 18 -40 25 -47 11 -11 13 -7 13 23 0 47 -22 98 -51 119 -14 9 -43 16 -72 16 -42 0 -53 -5 -78 -31z"/>
 <path d="M100 608 c1 -13 10 -39 21 -58 11 -19 18 -27 15 -17 -5 16 5 22 29 17 6 -1 4 4 -2 11 -24 24 -13 29 73 29 81 0 86 -1 81 -20 -4 -16 0 -20 18 -20 17 0 26 8 34 31 6 17 8 35 5 40 -3 5 -66 9 -140 9 -132 0 -134 0 -134 -22z"/>
 <path d="M665 606 c-15 -22 -12 -56 5 -56 4 0 14 10 22 22 18 27 38 16 38 -20 0 -21 2 -24 10 -12 9 13 11 13 20 0 7 -11 10 -6 10 21 0 64 -72 96 -105 45z"/>
 <path d="M80 531 c0 -6 4 -13 10 -16 6 -3 7 1 4 9 -7 18 -14 21 -14 7z"/>
 </g>

</svg>