<?xml version="1.0" encoding="utf-8"?>
<!-- Generator: Adobe Illustrator 21.1.0, SVG Export Plug-In . SVG Version: 6.00 Build 0)  -->
<svg version="1.1" id="Medicine" xmlns="http://www.w3.org/2000/svg" xmlns:xlink="http://www.w3.org/1999/xlink" x="0px" y="0px"
	 viewBox="0 0 165.4 165.4" style="enable-background:new 0 0 165.4 165.4;" xml:space="preserve">
<style type="text/css">
	.st0{fill:url(#SVGID_1_);}
	.st1{fill:url(#SVGID_2_);}
	.st2{fill:url(#SVGID_3_);}
	.st3{fill:url(#SVGID_4_);}
	.st4{fill:url(#SVGID_5_);}
	.st5{fill:url(#SVGID_6_);}
	.st6{fill:url(#SVGID_7_);}
	.st7{fill:url(#SVGID_8_);}
	.st8{fill:url(#SVGID_9_);}
	.st9{fill:url(#SVGID_10_);}
	.st10{fill:url(#SVGID_11_);}
</style>
<g>
	<linearGradient id="SVGID_1_" gradientUnits="userSpaceOnUse" x1="-295.4521" y1="396.1382" x2="-295.4521" y2="273.4018">
		<stop  offset="0" style="stop-color:#FFFFFF"/>
		<stop  offset="0" style="stop-color:#55BFE3"/>
		<stop  offset="1" style="stop-color:#3B8ACC"/>
	</linearGradient>
	<path class="st0" d="M-261.3,297.6v-21.7c0-1.4-1.1-2.5-2.5-2.5h-63.4c-1.4,0-2.5,1.1-2.5,2.5v21.7c-6,2.8-10.2,8.9-10.2,16v64.8
		c0,9.8,8,17.7,17.7,17.7h53.3c9.8,0,17.7-8,17.7-17.7v-64.8C-251.1,306.5-255.3,300.4-261.3,297.6z M-266.3,295.9h-2.5h-5.8v-17.5
		h8.3V295.9z M-311.3,295.9v-17.5h7.2v17.5H-311.3z M-299.1,278.4h7.2v17.5h-7.2V278.4z M-286.8,278.4h7.2v17.5h-7.2V278.4z
		 M-324.6,295.9v-17.5h8.3v17.5h-5.8H-324.6z M-256.1,378.4c0,7-5.7,12.7-12.7,12.7h-53.3c-7,0-12.7-5.7-12.7-12.7v-64.8
		c0-7,5.7-12.7,12.7-12.7h53.3c7,0,12.7,5.7,12.7,12.7V378.4z"/>
	<linearGradient id="SVGID_2_" gradientUnits="userSpaceOnUse" x1="-295.4521" y1="370.9663" x2="-295.4521" y2="323.7378">
		<stop  offset="0" style="stop-color:#FFFFFF"/>
		<stop  offset="0" style="stop-color:#55BFE3"/>
		<stop  offset="1" style="stop-color:#3B8ACC"/>
	</linearGradient>
	<path class="st1" d="M-264.5,323.7h-61.9c-1.4,0-2.5,1.1-2.5,2.5v42.2c0,1.4,1.1,2.5,2.5,2.5h61.9c1.4,0,2.5-1.1,2.5-2.5v-42.2
		C-262,324.9-263.1,323.7-264.5,323.7z M-267,366h-56.9v-37.2h56.9V366z"/>
</g>
<g>
	<linearGradient id="SVGID_3_" gradientUnits="userSpaceOnUse" x1="52.5327" y1="138.0529" x2="52.5327" y2="27.2985">
		<stop  offset="0" style="stop-color:#FFFFFF"/>
		<stop  offset="0" style="stop-color:#55BFE3"/>
		<stop  offset="1" style="stop-color:#3B8ACC"/>
	</linearGradient>
	<path class="st2" d="M65.7,74.4V41.3h2.5c1.4,0,2.5-1.1,2.5-2.5v-9c0-1.4-1.1-2.5-2.5-2.5H36.8c-1.4,0-2.5,1.1-2.5,2.5v9
		c0,1.4,1.1,2.5,2.5,2.5h2.5v33.1l-23.4,51.8c-1.2,2.6-1,5.6,0.6,8c1.5,2.4,4.2,3.8,7,3.8h58.1c2.9,0,5.5-1.4,7-3.8
		c1.5-2.4,1.8-5.4,0.6-8L65.7,74.4z M39.3,32.3h26.4v4h-2.5H41.8h-2.5V32.3z M84.4,131.5c-0.6,1-1.7,1.5-2.8,1.5H23.5
		c-1.2,0-2.2-0.6-2.8-1.5c-0.6-1-0.7-2.2-0.2-3.2L44.1,76c0.1-0.3,0.2-0.7,0.2-1V41.3h16.4V75c0,0.4,0.1,0.7,0.2,1l23.7,52.3
		C85.1,129.4,85,130.5,84.4,131.5z"/>
	<linearGradient id="SVGID_4_" gradientUnits="userSpaceOnUse" x1="52.5327" y1="126.4123" x2="52.5327" y2="94.6896">
		<stop  offset="0" style="stop-color:#FFFFFF"/>
		<stop  offset="0" style="stop-color:#55BFE3"/>
		<stop  offset="1" style="stop-color:#3B8ACC"/>
	</linearGradient>
	<path class="st3" d="M61.7,96.2c-0.4-0.9-1.3-1.5-2.3-1.5H45.7c-1,0-1.9,0.6-2.3,1.5l-12.1,26.7c-0.4,0.8-0.3,1.7,0.2,2.4
		c0.5,0.7,1.3,1.1,2.1,1.1h37.9c0.8,0,1.6-0.4,2.1-1.1c0.5-0.7,0.5-1.6,0.2-2.4L61.7,96.2z M37.5,121.4l9.8-21.7h10.5l9.8,21.7H37.5
		z"/>
	<linearGradient id="SVGID_5_" gradientUnits="userSpaceOnUse" x1="126.8858" y1="138.0529" x2="126.8858" y2="34.3542">
		<stop  offset="0" style="stop-color:#FFFFFF"/>
		<stop  offset="0" style="stop-color:#55BFE3"/>
		<stop  offset="1" style="stop-color:#3B8ACC"/>
	</linearGradient>
	<path class="st4" d="M147.7,34.4H106c-1.4,0-2.5,1.1-2.5,2.5v9c0,1.4,1.1,2.5,2.5,2.5h3.1v72c0,9.8,8,17.7,17.7,17.7
		c9.8,0,17.7-8,17.7-17.7v-72h3.1c1.4,0,2.5-1.1,2.5-2.5v-9C150.2,35.5,149.1,34.4,147.7,34.4z M139.6,120.3c0,7-5.7,12.7-12.7,12.7
		c-7,0-12.7-5.7-12.7-12.7V48.4h25.5V120.3z M145.2,43.3h-36.7v-4h36.7V43.3z"/>
	<linearGradient id="SVGID_6_" gradientUnits="userSpaceOnUse" x1="126.8857" y1="126.1618" x2="126.8857" y2="71.1418">
		<stop  offset="0" style="stop-color:#FFFFFF"/>
		<stop  offset="0" style="stop-color:#55BFE3"/>
		<stop  offset="1" style="stop-color:#3B8ACC"/>
	</linearGradient>
	<path class="st5" d="M126.9,126.2c4.7,0,8.5-3.8,8.5-8.5v-44c0-1.4-1.1-2.5-2.5-2.5h-12c-1.4,0-2.5,1.1-2.5,2.5v44
		C118.4,122.3,122.2,126.2,126.9,126.2z M123.4,76.1h7v41.5c0,1.9-1.6,3.5-3.5,3.5c-1.9,0-3.5-1.6-3.5-3.5V76.1z"/>
</g>
<g>
	<linearGradient id="SVGID_7_" gradientUnits="userSpaceOnUse" x1="95.8646" y1="310.5427" x2="95.8646" y2="304.76">
		<stop  offset="0" style="stop-color:#FFFFFF"/>
		<stop  offset="0" style="stop-color:#55BFE3"/>
		<stop  offset="1" style="stop-color:#3B8ACC"/>
	</linearGradient>
	<circle class="st6" cx="95.9" cy="307.7" r="2.9"/>
	<linearGradient id="SVGID_8_" gradientUnits="userSpaceOnUse" x1="55.3859" y1="313.434" x2="55.3859" y2="307.6513">
		<stop  offset="0" style="stop-color:#FFFFFF"/>
		<stop  offset="0" style="stop-color:#55BFE3"/>
		<stop  offset="1" style="stop-color:#3B8ACC"/>
	</linearGradient>
	<circle class="st7" cx="55.4" cy="310.5" r="2.9"/>
	<linearGradient id="SVGID_9_" gradientUnits="userSpaceOnUse" x1="75.6252" y1="316.3253" x2="75.6252" y2="310.5427">
		<stop  offset="0" style="stop-color:#FFFFFF"/>
		<stop  offset="0" style="stop-color:#55BFE3"/>
		<stop  offset="1" style="stop-color:#3B8ACC"/>
	</linearGradient>
	<circle class="st8" cx="75.6" cy="313.4" r="2.9"/>
	<linearGradient id="SVGID_10_" gradientUnits="userSpaceOnUse" x1="78.5166" y1="351.0214" x2="78.5166" y2="270.0639">
		<stop  offset="0" style="stop-color:#FFFFFF"/>
		<stop  offset="0" style="stop-color:#55BFE3"/>
		<stop  offset="1" style="stop-color:#3B8ACC"/>
	</linearGradient>
	<path class="st9" d="M78.5,270.1c-35.7,0-63.6,12.7-63.6,28.9v23.1c0,16.2,27.9,28.9,63.6,28.9c35.7,0,63.6-12.7,63.6-28.9V299
		C142.1,282.8,114.2,270.1,78.5,270.1z M78.5,275.8c34.6,0,57.8,12,57.8,23.1s-23.2,23.1-57.8,23.1s-57.8-12-57.8-23.1
		S43.9,275.8,78.5,275.8z M78.5,345.2c-34.6,0-57.8-12-57.8-23.1c0-2.6,1.2-5.3,3.7-7.8c11.1,8.2,31,13.6,54.1,13.6
		c23.2,0,43-5.4,54.1-13.6c2.4,2.5,3.7,5.2,3.7,7.8C136.3,333.3,113.1,345.2,78.5,345.2z"/>
	<linearGradient id="SVGID_11_" gradientUnits="userSpaceOnUse" x1="78.5158" y1="306.7894" x2="78.5158" y2="293.1946">
		<stop  offset="0" style="stop-color:#FFFFFF"/>
		<stop  offset="0" style="stop-color:#55BFE3"/>
		<stop  offset="1" style="stop-color:#3B8ACC"/>
	</linearGradient>
	<path class="st10" d="M36.3,306.5c11.2-4.9,26.1-7.6,42.2-7.6c16.1,0,31.1,2.7,42.2,7.6c0.4,0.2,0.8,0.2,1.2,0.2
		c1.1,0,2.2-0.6,2.6-1.7c0.6-1.5,0-3.2-1.5-3.8c-11.9-5.2-27.7-8.1-44.5-8.1c-16.8,0-32.7,2.9-44.5,8.1c-1.5,0.6-2.1,2.3-1.5,3.8
		C33.1,306.5,34.8,307.2,36.3,306.5z"/>
</g>
</svg>
