<!DOCTYPE svg PUBLIC "-//W3C//DTD SVG 20010904//EN" "http://www.w3.org/TR/2001/REC-SVG-20010904/DTD/svg10.dtd">
<svg version="1.0" xmlns="http://www.w3.org/2000/svg" width="70px" height="70px" viewBox="0 0 700 700" preserveAspectRatio="xMidYMid meet">
<g id="layer101" fill="#3d8ece" stroke="none">
 <path d="M0 350 l0 -350 350 0 350 0 0 350 0 350 -350 0 -350 0 0 -350z m660 0 l0 -310 -310 0 -310 0 0 310 0 310 310 0 310 0 0 -310z"/>
 <path d="M334 597 c-10 -27 0 -72 16 -72 11 0 15 11 15 39 0 40 -20 61 -31 33z"/>
 <path d="M160 593 c-56 -20 -83 -89 -56 -141 20 -38 44 -52 91 -52 48 0 95 44 95 90 0 74 -66 126 -130 103z m61 -53 c29 -16 25 -65 -6 -86 -23 -15 -27 -15 -50 0 -29 19 -32 51 -8 78 18 20 36 23 64 8z"/>
 <path d="M465 586 c-91 -40 -60 -186 40 -186 47 0 71 14 91 52 43 83 -44 173 -131 134z m77 -53 c26 -23 23 -59 -7 -79 -23 -15 -27 -15 -50 0 -44 29 -28 95 24 96 8 0 23 -7 33 -17z"/>
 <path d="M337 484 c-4 -4 -7 -31 -7 -60 l0 -53 -57 -3 c-44 -2 -58 -7 -58 -18 0 -11 14 -16 57 -18 l57 -3 3 -57 c2 -43 7 -57 18 -57 11 0 16 14 18 57 l3 57 57 3 c43 2 57 7 57 18 0 11 -14 16 -57 18 l-57 3 -3 56 c-3 52 -14 73 -31 57z m33 -134 c0 -13 -7 -20 -20 -20 -13 0 -20 7 -20 20 0 13 7 20 20 20 13 0 20 -7 20 -20z"/>
 <path d="M95 360 c-12 -19 10 -32 46 -28 48 4 46 32 -3 36 -20 2 -39 -2 -43 -8z"/>
 <path d="M525 360 c-12 -19 10 -32 46 -28 48 4 46 32 -3 36 -20 2 -39 -2 -43 -8z"/>
 <path d="M137 289 c-9 -5 -24 -24 -33 -41 -43 -84 44 -173 130 -133 93 44 62 186 -41 185 -21 0 -46 -5 -56 -11z m88 -53 c30 -30 22 -66 -18 -80 -54 -19 -92 56 -45 88 30 21 35 20 63 -8z"/>
 <path d="M439 271 c-48 -49 -35 -126 27 -156 86 -40 173 49 130 133 -32 61 -108 72 -157 23z m99 -27 c47 -32 9 -107 -45 -88 -40 14 -48 50 -18 80 28 28 33 29 63 8z"/>
 <path d="M334 167 c-10 -27 0 -72 16 -72 11 0 15 11 15 39 0 40 -20 61 -31 33z"/>
 </g>
<g id="layer102" fill="#4caedc" stroke="none">
 <path d="M0 490 c0 -203 1 -210 20 -210 19 0 20 7 20 190 l0 190 310 0 310 0 0 -190 c0 -183 1 -190 20 -190 19 0 20 7 20 210 l0 210 -350 0 -350 0 0 -210z"/>
 <path d="M334 597 c-10 -27 0 -72 16 -72 11 0 15 11 15 39 0 40 -20 61 -31 33z"/>
 <path d="M160 593 c-56 -20 -83 -89 -56 -141 20 -38 44 -52 91 -52 48 0 95 44 95 90 0 74 -66 126 -130 103z m61 -53 c29 -16 25 -65 -6 -86 -23 -15 -27 -15 -50 0 -29 19 -32 51 -8 78 18 20 36 23 64 8z"/>
 <path d="M465 586 c-91 -40 -60 -186 40 -186 47 0 71 14 91 52 43 83 -44 173 -131 134z m77 -53 c26 -23 23 -59 -7 -79 -23 -15 -27 -15 -50 0 -44 29 -28 95 24 96 8 0 23 -7 33 -17z"/>
 <path d="M337 484 c-4 -4 -7 -31 -7 -60 l0 -53 -57 -3 c-44 -2 -58 -7 -58 -18 0 -11 14 -16 58 -18 53 -3 57 -5 57 -27 0 -18 5 -25 20 -25 15 0 20 7 20 25 0 22 4 24 58 27 43 2 57 7 57 18 0 11 -14 16 -57 18 l-57 3 -3 56 c-3 52 -14 73 -31 57z m33 -134 c0 -13 -7 -20 -20 -20 -13 0 -20 7 -20 20 0 13 7 20 20 20 13 0 20 -7 20 -20z"/>
 <path d="M95 360 c-12 -19 10 -32 46 -28 48 4 46 32 -3 36 -20 2 -39 -2 -43 -8z"/>
 <path d="M525 360 c-12 -19 10 -32 46 -28 48 4 46 32 -3 36 -20 2 -39 -2 -43 -8z"/>
 <path d="M155 290 c3 -6 26 -9 51 -8 28 1 40 4 32 9 -19 12 -90 11 -83 -1z"/>
 <path d="M462 291 c-8 -5 4 -8 32 -9 25 -1 48 2 51 8 7 12 -64 13 -83 1z"/>
 <path d="M119 273 c-13 -16 -12 -17 4 -4 9 7 17 15 17 17 0 8 -8 3 -21 -13z"/>
 <path d="M560 286 c0 -2 8 -10 18 -17 15 -13 16 -12 3 4 -13 16 -21 21 -21 13z"/>
 <path d="M225 240 c3 -5 8 -10 11 -10 3 0 2 5 -1 10 -3 6 -8 10 -11 10 -3 0 -2 -4 1 -10z"/>
 <path d="M464 238 c-4 -7 -3 -8 4 -4 12 7 16 16 8 16 -3 0 -8 -5 -12 -12z"/>
 <path d="M145 170 c3 -5 8 -10 11 -10 3 0 2 5 -1 10 -3 6 -8 10 -11 10 -3 0 -2 -4 1 -10z"/>
 <path d="M544 168 c-4 -7 -3 -8 4 -4 12 7 16 16 8 16 -3 0 -8 -5 -12 -12z"/>
 </g>

</svg>