<?xml version="1.0" standalone="no"?>
<!DOCTYPE svg PUBLIC "-//W3C//DTD SVG 20010904//EN"
 "http://www.w3.org/TR/2001/REC-SVG-20010904/DTD/svg10.dtd">
<svg version="1.0" xmlns="http://www.w3.org/2000/svg"
 width="80.000000pt" height="80.000000pt" viewBox="0 0 80.000000 80.000000"
 preserveAspectRatio="xMidYMid meet">
<metadata>
Created by potrace 1.11, written by Peter Selinger 2001-2013
</metadata>
<g transform="translate(0.000000,80.000000) scale(0.100000,-0.100000)"
fill="#000000" stroke="none">
<path d="M411 787 c-6 -8 -9 -16 -6 -19 3 -3 7 -28 9 -56 4 -46 2 -55 -23 -80
-15 -15 -66 -42 -113 -60 -47 -17 -103 -45 -125 -61 -38 -28 -92 -91 -77 -91
3 0 1 -7 -6 -15 -6 -8 -9 -19 -6 -24 4 -5 2 -13 -4 -16 -15 -9 -10 -119 6
-150 7 -13 10 -26 8 -28 -11 -10 94 -111 140 -134 89 -46 192 -65 226 -43 13
8 12 15 -8 50 -35 62 -27 70 127 135 66 27 73 32 126 80 27 25 40 47 50 85 1
3 5 13 10 23 13 32 -1 142 -26 193 -44 92 -206 224 -275 224 -12 0 -27 -6 -33
-13z"/>
</g>
</svg>
